<mxfile host="Electron" agent="Mozilla/5.0 (Windows NT 10.0; Win64; x64) AppleWebKit/537.36 (KHTML, like Gecko) draw.io/26.2.2 Chrome/134.0.6998.178 Electron/35.1.2 Safari/537.36" version="26.2.2">
  <diagram name="Page-1" id="_9Ku7tVeoncEU6XAkHwG">
    <mxGraphModel dx="1044" dy="660" grid="1" gridSize="10" guides="1" tooltips="1" connect="1" arrows="1" fold="1" page="1" pageScale="1" pageWidth="850" pageHeight="1100" math="0" shadow="0">
      <root>
        <mxCell id="0" />
        <mxCell id="1" parent="0" />
        <mxCell id="6l2sxY0xHWQnPwioO3m_-1" value="" style="shape=umlLifeline;perimeter=lifelinePerimeter;whiteSpace=wrap;html=1;container=1;dropTarget=0;collapsible=0;recursiveResize=0;outlineConnect=0;portConstraint=eastwest;newEdgeStyle={&quot;curved&quot;:0,&quot;rounded&quot;:0};participant=umlActor;" vertex="1" parent="1">
          <mxGeometry x="70" y="80" width="20" height="780" as="geometry" />
        </mxCell>
        <mxCell id="6l2sxY0xHWQnPwioO3m_-2" value="ProfileScreen" style="shape=umlLifeline;perimeter=lifelinePerimeter;whiteSpace=wrap;html=1;container=1;dropTarget=0;collapsible=0;recursiveResize=0;outlineConnect=0;portConstraint=eastwest;newEdgeStyle={&quot;curved&quot;:0,&quot;rounded&quot;:0};" vertex="1" parent="1">
          <mxGeometry x="130" y="80" width="100" height="790" as="geometry" />
        </mxCell>
        <mxCell id="6l2sxY0xHWQnPwioO3m_-5" value="" style="html=1;points=[[0,0,0,0,5],[0,1,0,0,-5],[1,0,0,0,5],[1,1,0,0,-5]];perimeter=orthogonalPerimeter;outlineConnect=0;targetShapes=umlLifeline;portConstraint=eastwest;newEdgeStyle={&quot;curved&quot;:0,&quot;rounded&quot;:0};fillColor=#0000FF;" vertex="1" parent="6l2sxY0xHWQnPwioO3m_-2">
          <mxGeometry x="45" y="90" width="10" height="50" as="geometry" />
        </mxCell>
        <mxCell id="6l2sxY0xHWQnPwioO3m_-3" value="DBManager" style="shape=umlLifeline;perimeter=lifelinePerimeter;whiteSpace=wrap;html=1;container=1;dropTarget=0;collapsible=0;recursiveResize=0;outlineConnect=0;portConstraint=eastwest;newEdgeStyle={&quot;curved&quot;:0,&quot;rounded&quot;:0};" vertex="1" parent="1">
          <mxGeometry x="580" y="80" width="100" height="790" as="geometry" />
        </mxCell>
        <mxCell id="6l2sxY0xHWQnPwioO3m_-12" value="" style="html=1;points=[[0,0,0,0,5],[0,1,0,0,-5],[1,0,0,0,5],[1,1,0,0,-5]];perimeter=orthogonalPerimeter;outlineConnect=0;targetShapes=umlLifeline;portConstraint=eastwest;newEdgeStyle={&quot;curved&quot;:0,&quot;rounded&quot;:0};fillColor=#0000FF;" vertex="1" parent="6l2sxY0xHWQnPwioO3m_-3">
          <mxGeometry x="45" y="170" width="10" height="70" as="geometry" />
        </mxCell>
        <mxCell id="6l2sxY0xHWQnPwioO3m_-4" value="Select Screen" style="html=1;verticalAlign=bottom;endArrow=block;curved=0;rounded=0;" edge="1" parent="1" source="6l2sxY0xHWQnPwioO3m_-1" target="6l2sxY0xHWQnPwioO3m_-5">
          <mxGeometry width="80" relative="1" as="geometry">
            <mxPoint x="380" y="380" as="sourcePoint" />
            <mxPoint x="460" y="380" as="targetPoint" />
            <Array as="points">
              <mxPoint x="130" y="180" />
            </Array>
          </mxGeometry>
        </mxCell>
        <mxCell id="6l2sxY0xHWQnPwioO3m_-8" value="MyAnnouncmentList" style="shape=umlLifeline;perimeter=lifelinePerimeter;whiteSpace=wrap;html=1;container=1;dropTarget=0;collapsible=0;recursiveResize=0;outlineConnect=0;portConstraint=eastwest;newEdgeStyle={&quot;curved&quot;:0,&quot;rounded&quot;:0};" vertex="1" parent="1">
          <mxGeometry x="270" y="80" width="100" height="790" as="geometry" />
        </mxCell>
        <mxCell id="6l2sxY0xHWQnPwioO3m_-10" value="" style="html=1;points=[[0,0,0,0,5],[0,1,0,0,-5],[1,0,0,0,5],[1,1,0,0,-5]];perimeter=orthogonalPerimeter;outlineConnect=0;targetShapes=umlLifeline;portConstraint=eastwest;newEdgeStyle={&quot;curved&quot;:0,&quot;rounded&quot;:0};fillColor=#0000FF;" vertex="1" parent="6l2sxY0xHWQnPwioO3m_-8">
          <mxGeometry x="45" y="120" width="10" height="180" as="geometry" />
        </mxCell>
        <mxCell id="6l2sxY0xHWQnPwioO3m_-9" value="display()" style="html=1;verticalAlign=bottom;endArrow=block;curved=0;rounded=0;" edge="1" parent="1" source="6l2sxY0xHWQnPwioO3m_-2" target="6l2sxY0xHWQnPwioO3m_-10">
          <mxGeometry width="80" relative="1" as="geometry">
            <mxPoint x="380" y="380" as="sourcePoint" />
            <mxPoint x="460" y="380" as="targetPoint" />
            <Array as="points">
              <mxPoint x="240" y="210" />
            </Array>
          </mxGeometry>
        </mxCell>
        <mxCell id="6l2sxY0xHWQnPwioO3m_-11" value="searchAnnouncments(user_id)" style="html=1;verticalAlign=bottom;endArrow=block;curved=0;rounded=0;" edge="1" parent="1" source="6l2sxY0xHWQnPwioO3m_-8" target="6l2sxY0xHWQnPwioO3m_-12">
          <mxGeometry width="80" relative="1" as="geometry">
            <mxPoint x="380" y="380" as="sourcePoint" />
            <mxPoint x="460" y="380" as="targetPoint" />
            <Array as="points">
              <mxPoint x="510" y="260" />
            </Array>
          </mxGeometry>
        </mxCell>
        <mxCell id="6l2sxY0xHWQnPwioO3m_-13" value="return AnnouncmentsList of User" style="html=1;verticalAlign=bottom;endArrow=open;dashed=1;endSize=8;curved=0;rounded=0;" edge="1" parent="1" source="6l2sxY0xHWQnPwioO3m_-3" target="6l2sxY0xHWQnPwioO3m_-8">
          <mxGeometry relative="1" as="geometry">
            <mxPoint x="460" y="380" as="sourcePoint" />
            <mxPoint x="380" y="380" as="targetPoint" />
            <Array as="points">
              <mxPoint x="510" y="310" />
            </Array>
          </mxGeometry>
        </mxCell>
        <mxCell id="6l2sxY0xHWQnPwioO3m_-14" value="alt1" style="shape=umlFrame;whiteSpace=wrap;html=1;pointerEvents=0;" vertex="1" parent="1">
          <mxGeometry x="280" y="160" width="720" height="720" as="geometry" />
        </mxCell>
        <mxCell id="6l2sxY0xHWQnPwioO3m_-15" value="[Has Announcments]" style="text;html=1;align=center;verticalAlign=middle;resizable=0;points=[];autosize=1;strokeColor=none;fillColor=none;" vertex="1" parent="1">
          <mxGeometry x="445" y="168" width="130" height="30" as="geometry" />
        </mxCell>
        <mxCell id="6l2sxY0xHWQnPwioO3m_-16" value="Select Announcment" style="html=1;verticalAlign=bottom;endArrow=block;curved=0;rounded=0;" edge="1" parent="1" source="6l2sxY0xHWQnPwioO3m_-1" target="6l2sxY0xHWQnPwioO3m_-8">
          <mxGeometry width="80" relative="1" as="geometry">
            <mxPoint x="380" y="380" as="sourcePoint" />
            <mxPoint x="460" y="380" as="targetPoint" />
            <Array as="points">
              <mxPoint x="200" y="330" />
            </Array>
          </mxGeometry>
        </mxCell>
        <mxCell id="6l2sxY0xHWQnPwioO3m_-17" value="EditAnnouncment" style="shape=umlLifeline;perimeter=lifelinePerimeter;whiteSpace=wrap;html=1;container=1;dropTarget=0;collapsible=0;recursiveResize=0;outlineConnect=0;portConstraint=eastwest;newEdgeStyle={&quot;curved&quot;:0,&quot;rounded&quot;:0};" vertex="1" parent="1">
          <mxGeometry x="425" y="80" width="100" height="790" as="geometry" />
        </mxCell>
        <mxCell id="6l2sxY0xHWQnPwioO3m_-19" value="" style="html=1;points=[[0,0,0,0,5],[0,1,0,0,-5],[1,0,0,0,5],[1,1,0,0,-5]];perimeter=orthogonalPerimeter;outlineConnect=0;targetShapes=umlLifeline;portConstraint=eastwest;newEdgeStyle={&quot;curved&quot;:0,&quot;rounded&quot;:0};fillColor=#0000FF;" vertex="1" parent="6l2sxY0xHWQnPwioO3m_-17">
          <mxGeometry x="45" y="280" width="10" height="250" as="geometry" />
        </mxCell>
        <mxCell id="6l2sxY0xHWQnPwioO3m_-18" value="display(ann_id)" style="html=1;verticalAlign=bottom;endArrow=block;curved=0;rounded=0;" edge="1" parent="1" source="6l2sxY0xHWQnPwioO3m_-8" target="6l2sxY0xHWQnPwioO3m_-19">
          <mxGeometry width="80" relative="1" as="geometry">
            <mxPoint x="380" y="380" as="sourcePoint" />
            <mxPoint x="460" y="380" as="targetPoint" />
            <Array as="points">
              <mxPoint x="400" y="370" />
            </Array>
          </mxGeometry>
        </mxCell>
        <mxCell id="6l2sxY0xHWQnPwioO3m_-20" value="MessageScreen" style="shape=umlLifeline;perimeter=lifelinePerimeter;whiteSpace=wrap;html=1;container=1;dropTarget=0;collapsible=0;recursiveResize=0;outlineConnect=0;portConstraint=eastwest;newEdgeStyle={&quot;curved&quot;:0,&quot;rounded&quot;:0};" vertex="1" parent="1">
          <mxGeometry x="870" y="80" width="100" height="790" as="geometry" />
        </mxCell>
        <mxCell id="6l2sxY0xHWQnPwioO3m_-25" value="" style="html=1;points=[[0,0,0,0,5],[0,1,0,0,-5],[1,0,0,0,5],[1,1,0,0,-5]];perimeter=orthogonalPerimeter;outlineConnect=0;targetShapes=umlLifeline;portConstraint=eastwest;newEdgeStyle={&quot;curved&quot;:0,&quot;rounded&quot;:0};fillColor=#0000CC;" vertex="1" parent="6l2sxY0xHWQnPwioO3m_-20">
          <mxGeometry x="45" y="720" width="10" height="40" as="geometry" />
        </mxCell>
        <mxCell id="6l2sxY0xHWQnPwioO3m_-42" value="" style="html=1;points=[[0,0,0,0,5],[0,1,0,0,-5],[1,0,0,0,5],[1,1,0,0,-5]];perimeter=orthogonalPerimeter;outlineConnect=0;targetShapes=umlLifeline;portConstraint=eastwest;newEdgeStyle={&quot;curved&quot;:0,&quot;rounded&quot;:0};fillColor=#0000CC;" vertex="1" parent="6l2sxY0xHWQnPwioO3m_-20">
          <mxGeometry x="45" y="620" width="10" height="30" as="geometry" />
        </mxCell>
        <mxCell id="6l2sxY0xHWQnPwioO3m_-21" value="" style="endArrow=none;dashed=1;html=1;dashPattern=1 3;strokeWidth=2;rounded=0;" edge="1" parent="1">
          <mxGeometry width="50" height="50" relative="1" as="geometry">
            <mxPoint x="280" y="750" as="sourcePoint" />
            <mxPoint x="820" y="750" as="targetPoint" />
          </mxGeometry>
        </mxCell>
        <mxCell id="6l2sxY0xHWQnPwioO3m_-22" value="[Hasn&#39;t Announcments]" style="text;html=1;align=center;verticalAlign=middle;resizable=0;points=[];autosize=1;strokeColor=none;fillColor=none;" vertex="1" parent="1">
          <mxGeometry x="485" y="760" width="150" height="30" as="geometry" />
        </mxCell>
        <mxCell id="6l2sxY0xHWQnPwioO3m_-24" value="dispaly(msg)" style="html=1;verticalAlign=bottom;endArrow=block;curved=0;rounded=0;" edge="1" parent="1" source="6l2sxY0xHWQnPwioO3m_-23" target="6l2sxY0xHWQnPwioO3m_-25">
          <mxGeometry width="80" relative="1" as="geometry">
            <mxPoint x="380" y="380" as="sourcePoint" />
            <mxPoint x="460" y="380" as="targetPoint" />
            <Array as="points">
              <mxPoint x="530" y="800" />
            </Array>
          </mxGeometry>
        </mxCell>
        <mxCell id="6l2sxY0xHWQnPwioO3m_-27" value="" style="html=1;verticalAlign=bottom;endArrow=block;curved=0;rounded=0;" edge="1" parent="1" source="6l2sxY0xHWQnPwioO3m_-8" target="6l2sxY0xHWQnPwioO3m_-23">
          <mxGeometry width="80" relative="1" as="geometry">
            <mxPoint x="320" y="630" as="sourcePoint" />
            <mxPoint x="755" y="630" as="targetPoint" />
            <Array as="points" />
          </mxGeometry>
        </mxCell>
        <mxCell id="6l2sxY0xHWQnPwioO3m_-23" value="" style="html=1;points=[[0,0,0,0,5],[0,1,0,0,-5],[1,0,0,0,5],[1,1,0,0,-5]];perimeter=orthogonalPerimeter;outlineConnect=0;targetShapes=umlLifeline;portConstraint=eastwest;newEdgeStyle={&quot;curved&quot;:0,&quot;rounded&quot;:0};fillColor=#0000CC;" vertex="1" parent="1">
          <mxGeometry x="315" y="790" width="10" height="50" as="geometry" />
        </mxCell>
        <mxCell id="6l2sxY0xHWQnPwioO3m_-28" value="TakeAction()&amp;amp;ChangeDetails()" style="html=1;verticalAlign=bottom;endArrow=block;curved=0;rounded=0;" edge="1" parent="1" source="6l2sxY0xHWQnPwioO3m_-1" target="6l2sxY0xHWQnPwioO3m_-17">
          <mxGeometry width="80" relative="1" as="geometry">
            <mxPoint x="380" y="380" as="sourcePoint" />
            <mxPoint x="460" y="380" as="targetPoint" />
            <Array as="points">
              <mxPoint x="280" y="420" />
            </Array>
          </mxGeometry>
        </mxCell>
        <mxCell id="6l2sxY0xHWQnPwioO3m_-30" value="checkDetails()" style="html=1;align=left;spacingLeft=2;endArrow=block;rounded=0;edgeStyle=orthogonalEdgeStyle;curved=0;rounded=0;" edge="1" target="6l2sxY0xHWQnPwioO3m_-17" parent="1">
          <mxGeometry relative="1" as="geometry">
            <mxPoint x="480" y="430" as="sourcePoint" />
            <Array as="points">
              <mxPoint x="540" y="430" />
              <mxPoint x="540" y="460" />
            </Array>
            <mxPoint x="485.5" y="460" as="targetPoint" />
          </mxGeometry>
        </mxCell>
        <mxCell id="6l2sxY0xHWQnPwioO3m_-31" value="validateDetails()" style="html=1;verticalAlign=bottom;endArrow=block;curved=0;rounded=0;" edge="1" parent="1" source="6l2sxY0xHWQnPwioO3m_-17" target="6l2sxY0xHWQnPwioO3m_-32">
          <mxGeometry width="80" relative="1" as="geometry">
            <mxPoint x="380" y="380" as="sourcePoint" />
            <mxPoint x="460" y="380" as="targetPoint" />
            <Array as="points">
              <mxPoint x="550" y="490" />
            </Array>
          </mxGeometry>
        </mxCell>
        <mxCell id="6l2sxY0xHWQnPwioO3m_-32" value="" style="html=1;points=[[0,0,0,0,5],[0,1,0,0,-5],[1,0,0,0,5],[1,1,0,0,-5]];perimeter=orthogonalPerimeter;outlineConnect=0;targetShapes=umlLifeline;portConstraint=eastwest;newEdgeStyle={&quot;curved&quot;:0,&quot;rounded&quot;:0};fillColor=#0000FF;" vertex="1" parent="1">
          <mxGeometry x="625" y="480" width="10" height="40" as="geometry" />
        </mxCell>
        <mxCell id="6l2sxY0xHWQnPwioO3m_-33" value="return validation of details" style="html=1;verticalAlign=bottom;endArrow=open;dashed=1;endSize=8;curved=0;rounded=0;" edge="1" parent="1" source="6l2sxY0xHWQnPwioO3m_-3" target="6l2sxY0xHWQnPwioO3m_-17">
          <mxGeometry relative="1" as="geometry">
            <mxPoint x="460" y="380" as="sourcePoint" />
            <mxPoint x="380" y="380" as="targetPoint" />
            <Array as="points">
              <mxPoint x="570" y="510" />
            </Array>
          </mxGeometry>
        </mxCell>
        <mxCell id="6l2sxY0xHWQnPwioO3m_-34" value="alt2" style="shape=umlFrame;whiteSpace=wrap;html=1;pointerEvents=0;" vertex="1" parent="1">
          <mxGeometry x="370" y="520" width="590" height="220" as="geometry" />
        </mxCell>
        <mxCell id="6l2sxY0xHWQnPwioO3m_-35" value="[valid]&amp;nbsp;" style="text;html=1;align=center;verticalAlign=middle;resizable=0;points=[];autosize=1;strokeColor=none;fillColor=none;" vertex="1" parent="1">
          <mxGeometry x="520" y="518" width="60" height="30" as="geometry" />
        </mxCell>
        <mxCell id="6l2sxY0xHWQnPwioO3m_-37" value="" style="endArrow=none;dashed=1;html=1;dashPattern=1 3;strokeWidth=2;rounded=0;entryX=1.003;entryY=0.736;entryDx=0;entryDy=0;entryPerimeter=0;exitX=-0.005;exitY=0.732;exitDx=0;exitDy=0;exitPerimeter=0;" edge="1" parent="1" source="6l2sxY0xHWQnPwioO3m_-34" target="6l2sxY0xHWQnPwioO3m_-34">
          <mxGeometry width="50" height="50" relative="1" as="geometry">
            <mxPoint x="410" y="651" as="sourcePoint" />
            <mxPoint x="450" y="600" as="targetPoint" />
            <Array as="points" />
          </mxGeometry>
        </mxCell>
        <mxCell id="6l2sxY0xHWQnPwioO3m_-38" value="[No valid]" style="text;html=1;align=center;verticalAlign=middle;resizable=0;points=[];autosize=1;strokeColor=none;fillColor=none;" vertex="1" parent="1">
          <mxGeometry x="515" y="680" width="70" height="30" as="geometry" />
        </mxCell>
        <mxCell id="6l2sxY0xHWQnPwioO3m_-41" value="" style="html=1;points=[[0,0,0,0,5],[0,1,0,0,-5],[1,0,0,0,5],[1,1,0,0,-5]];perimeter=orthogonalPerimeter;outlineConnect=0;targetShapes=umlLifeline;portConstraint=eastwest;newEdgeStyle={&quot;curved&quot;:0,&quot;rounded&quot;:0};fillColor=#0000CC;" vertex="1" parent="1">
          <mxGeometry x="470" y="700" width="10" height="30" as="geometry" />
        </mxCell>
        <mxCell id="6l2sxY0xHWQnPwioO3m_-43" value="dispaly(msg)" style="html=1;verticalAlign=bottom;endArrow=block;curved=0;rounded=0;" edge="1" parent="1" source="6l2sxY0xHWQnPwioO3m_-41" target="6l2sxY0xHWQnPwioO3m_-42">
          <mxGeometry width="80" relative="1" as="geometry">
            <mxPoint x="380" y="620" as="sourcePoint" />
            <mxPoint x="460" y="620" as="targetPoint" />
            <Array as="points">
              <mxPoint x="550" y="720" />
            </Array>
          </mxGeometry>
        </mxCell>
        <mxCell id="6l2sxY0xHWQnPwioO3m_-48" value="" style="html=1;points=[[0,0,0,0,5],[0,1,0,0,-5],[1,0,0,0,5],[1,1,0,0,-5]];perimeter=orthogonalPerimeter;outlineConnect=0;targetShapes=umlLifeline;portConstraint=eastwest;newEdgeStyle={&quot;curved&quot;:0,&quot;rounded&quot;:0};fillColor=#0000CC;" vertex="1" parent="1">
          <mxGeometry x="625" y="600" width="10" height="30" as="geometry" />
        </mxCell>
        <mxCell id="6l2sxY0xHWQnPwioO3m_-49" value="dispatch" style="html=1;verticalAlign=bottom;endArrow=block;curved=0;rounded=0;" edge="1" parent="1" source="6l2sxY0xHWQnPwioO3m_-17" target="6l2sxY0xHWQnPwioO3m_-3">
          <mxGeometry width="80" relative="1" as="geometry">
            <mxPoint x="380" y="520" as="sourcePoint" />
            <mxPoint x="460" y="520" as="targetPoint" />
            <Array as="points">
              <mxPoint x="570" y="600" />
            </Array>
          </mxGeometry>
        </mxCell>
        <mxCell id="6l2sxY0xHWQnPwioO3m_-50" value="AnnouncmentList" style="shape=umlLifeline;perimeter=lifelinePerimeter;whiteSpace=wrap;html=1;container=1;dropTarget=0;collapsible=0;recursiveResize=0;outlineConnect=0;portConstraint=eastwest;newEdgeStyle={&quot;curved&quot;:0,&quot;rounded&quot;:0};" vertex="1" parent="1">
          <mxGeometry x="700" y="80" width="100" height="800" as="geometry" />
        </mxCell>
        <mxCell id="6l2sxY0xHWQnPwioO3m_-53" value="" style="html=1;points=[[0,0,0,0,5],[0,1,0,0,-5],[1,0,0,0,5],[1,1,0,0,-5]];perimeter=orthogonalPerimeter;outlineConnect=0;targetShapes=umlLifeline;portConstraint=eastwest;newEdgeStyle={&quot;curved&quot;:0,&quot;rounded&quot;:0};fillColor=#0000CC;" vertex="1" parent="6l2sxY0xHWQnPwioO3m_-50">
          <mxGeometry x="45" y="550" width="10" height="40" as="geometry" />
        </mxCell>
        <mxCell id="6l2sxY0xHWQnPwioO3m_-52" value="" style="html=1;points=[[0,0,0,0,5],[0,1,0,0,-5],[1,0,0,0,5],[1,1,0,0,-5]];perimeter=orthogonalPerimeter;outlineConnect=0;targetShapes=umlLifeline;portConstraint=eastwest;newEdgeStyle={&quot;curved&quot;:0,&quot;rounded&quot;:0};fillColor=#0000CC;" vertex="1" parent="1">
          <mxGeometry x="915" y="610" width="10" height="40" as="geometry" />
        </mxCell>
        <mxCell id="6l2sxY0xHWQnPwioO3m_-54" value="display(ann_id)" style="html=1;verticalAlign=bottom;endArrow=block;curved=0;rounded=0;" edge="1" parent="1" source="6l2sxY0xHWQnPwioO3m_-20" target="6l2sxY0xHWQnPwioO3m_-50">
          <mxGeometry width="80" relative="1" as="geometry">
            <mxPoint x="500" y="520" as="sourcePoint" />
            <mxPoint x="580" y="520" as="targetPoint" />
            <Array as="points">
              <mxPoint x="860" y="640" />
            </Array>
          </mxGeometry>
        </mxCell>
        <mxCell id="6l2sxY0xHWQnPwioO3m_-55" value="saveAnnouncment()" style="html=1;verticalAlign=bottom;endArrow=block;curved=0;rounded=0;" edge="1" parent="1" source="6l2sxY0xHWQnPwioO3m_-3" target="6l2sxY0xHWQnPwioO3m_-20">
          <mxGeometry width="80" relative="1" as="geometry">
            <mxPoint x="500" y="520" as="sourcePoint" />
            <mxPoint x="580" y="520" as="targetPoint" />
            <Array as="points">
              <mxPoint x="790" y="610" />
            </Array>
          </mxGeometry>
        </mxCell>
      </root>
    </mxGraphModel>
  </diagram>
</mxfile>
